# xmcd
#
# Track frame offsets: 
#        150
#        16160
#        32072
#        43740
#        58797
#        78107
#        97247
#        110840
#        126540
#        141900
#
# Disc length: 2092 seconds
#
# Revision: 2
# Processed by: cddbd v1.4PL0 Copyright (c) Steve Scherf et al.
# Submitted via: ExactAudioCopy v0.90b3
#
DISCID=8e082a0a
DTITLE=Lionel Cartwright - Lionel Cartwright
DYEAR=1900
DGENRE=Country
TTITLE0=Fallin' Again
TTITLE1=Like Father Like Son
TTITLE2=You're Gonna Make Her Mine
TTITLE3=A Little Lesser Blue
TTITLE4=In My Eyes
TTITLE5=Give Me His Last Chance
TTITLE6=That's Why They Call It Falling
TTITLE7=Blue Fiddle Waltz
TTITLE8=She Never Saw Love (Like It Was Meant To Be)
TTITLE9=Let The Hard Times Roll
EXTD=
EXTT0=
EXTT1=
EXTT2=
EXTT3=
EXTT4=
EXTT5=
EXTT6=
EXTT7=
EXTT8=
EXTT9=
PLAYORDER=
